<svg width="50" height="50" viewBox="0 0 50 50" fill="none" xmlns="http://www.w3.org/2000/svg">
<path d="M15.9291 24.8627L14.7434 32.8429C14.6998 33.1371 14.7426 33.4369 14.8673 33.7101C14.9919 33.9834 15.1938 34.22 15.4512 34.3945C15.7087 34.569 16.0121 34.6751 16.329 34.7012C16.646 34.7273 16.9646 34.6726 17.2508 34.5429L24.99 31.0248L32.7546 34.5437C33.0409 34.6732 33.3596 34.7276 33.6765 34.7012C33.9934 34.6749 34.2967 34.5686 34.554 34.394C34.8114 34.2193 35.013 33.9826 35.1376 33.7093C35.2621 33.436 35.3048 33.1363 35.2611 32.8421L34.0684 24.8847L40.0517 19.0799C40.2724 18.8659 40.4266 18.5999 40.4979 18.3104C40.5692 18.021 40.555 17.7188 40.4567 17.4363C40.3584 17.1538 40.1798 16.9015 39.9399 16.7064C39.7 16.5113 39.4078 16.3806 39.0945 16.3284L30.6177 14.9287L26.5515 7.82258C26.4017 7.56052 26.1785 7.34138 25.9056 7.18859C25.6327 7.03579 25.3205 6.95508 25.0023 6.95508C24.684 6.95508 24.3718 7.03579 24.0989 7.18859C23.826 7.34138 23.6028 7.56052 23.453 7.82258L19.4068 14.9148L10.91 16.3284C10.5967 16.3806 10.3045 16.5113 10.0646 16.7064C9.82472 16.9015 9.64609 17.1538 9.54781 17.4363C9.44953 17.7188 9.43529 18.021 9.50661 18.3104C9.57793 18.5999 9.73213 18.8659 9.95275 19.0799L15.9291 24.8627ZM19.7224 16.5555C19.9839 16.5121 20.2313 16.4137 20.446 16.2678C20.6606 16.1218 20.8369 15.9321 20.9613 15.7132L24.9761 8.60624L25.7642 8.21458L24.977 8.60683L29.0432 15.7129C29.1678 15.9321 29.3444 16.122 29.5594 16.2679C29.7744 16.4139 30.0223 16.5121 30.2841 16.5552L38.7653 17.924L32.7828 23.7289C32.5975 23.9073 32.4584 24.1228 32.376 24.3591C32.2937 24.5953 32.2703 24.846 32.3077 25.092L33.5335 33.0437L25.7698 29.5256C25.531 29.4164 25.2686 29.3596 25.0026 29.3596C24.7366 29.3596 24.4742 29.4164 24.2354 29.5256L16.5119 33.0713L17.6985 25.0896C17.7352 24.844 17.7115 24.5938 17.6292 24.358C17.5468 24.1223 17.408 23.9071 17.2232 23.7289L11.2239 17.9688L19.7224 16.5555Z" fill="#FFCC00"/>
<path d="M46.6963 25.6657C47.109 24.0837 47.3188 22.4615 47.3212 20.8333C47.3212 15.308 44.9698 10.0089 40.7842 6.10194C36.5986 2.19493 30.9217 0 25.0024 0C19.0831 0 13.4062 2.19493 9.22062 6.10194C5.03503 10.0089 2.68359 15.308 2.68359 20.8333C2.6859 22.4615 2.89589 24.0836 3.30914 25.6653C1.58238 27.0903 0.448899 29.0377 0.107885 31.1654C-0.233129 33.2931 0.240148 35.4649 1.44454 37.2992C2.64894 39.1334 4.50739 40.5128 6.69329 41.1948C8.87919 41.8768 11.2527 41.8179 13.3966 41.0283V49.1667C13.3966 49.2877 13.4249 49.4072 13.4794 49.517C13.5339 49.6268 13.6134 49.7241 13.7123 49.8024C13.8112 49.8806 13.9271 49.9377 14.0521 49.9699C14.1771 50.0021 14.308 50.0084 14.4359 49.9886L25.0024 48.3447L35.569 49.9886C35.6174 49.996 35.6664 49.9998 35.7155 50C35.9522 50 36.1793 49.9122 36.3467 49.7559C36.5142 49.5996 36.6082 49.3877 36.6082 49.1667V41.0283C38.7519 41.8161 41.1243 41.8738 43.309 41.1914C45.4937 40.5089 47.3511 39.13 48.5551 37.2965C49.759 35.4631 50.2326 33.2923 49.8927 31.1654C49.5528 29.0385 48.4211 27.0913 46.6963 25.6657V25.6657ZM25.0024 1.66667C30.4463 1.67231 35.6656 3.69347 39.515 7.28669C43.3644 10.8799 45.5297 15.7518 45.5357 20.8333C45.5373 22.4926 45.3043 24.1448 44.8426 25.7471C43.6159 30.0408 40.8345 33.8057 36.9708 36.4019C36.4223 36.7704 35.8544 37.113 35.2691 37.4284L35.2677 37.4293L35.2612 37.4332C34.8262 37.6733 34.3668 37.889 33.9757 38.068C31.1807 39.3392 28.1124 39.9999 25.0033 40C21.8942 40.0001 18.8259 39.3397 16.0308 38.0688C15.6384 37.889 15.179 37.6733 14.7363 37.4284C14.1494 37.1122 13.5799 36.7687 13.03 36.3992C9.16689 33.8018 6.3865 30.036 5.16134 25.7417C4.69997 24.1412 4.46721 22.4908 4.4691 20.8333C4.47515 15.7518 6.64042 10.8799 10.4898 7.28669C14.3393 3.69347 19.5585 1.67231 25.0024 1.66667V1.66667ZM9.82562 40C8.27218 40.0002 6.752 39.58 5.44917 38.7902C4.14633 38.0005 3.11673 36.8751 2.48505 35.5504C1.85336 34.2256 1.64669 32.7583 1.89005 31.3262C2.13341 29.8941 2.81637 28.5585 3.85622 27.4813C3.8747 27.5327 3.89997 27.5813 3.91871 27.6328C4.10789 28.1441 4.31358 28.6495 4.5448 29.1438C4.56444 29.186 4.58667 29.2272 4.60667 29.2688C4.84117 29.7614 5.09581 30.2445 5.3706 30.7182C5.39488 30.7598 5.41693 30.803 5.44202 30.8447C5.72208 31.3197 6.02561 31.7827 6.34424 32.236C6.39343 32.3062 6.44155 32.3767 6.49172 32.4463C6.8093 32.8867 7.14453 33.3152 7.49741 33.7319C7.55445 33.7994 7.6123 33.8658 7.67033 33.9327C8.03395 34.3522 8.41248 34.7603 8.80984 35.1527C8.8526 35.195 8.89724 35.2354 8.94036 35.2778C9.78085 36.0941 10.6913 36.8451 11.6625 37.5233C11.7201 37.5637 11.7763 37.6053 11.8344 37.645C12.2966 37.9612 12.7727 38.2598 13.2628 38.5409C13.3086 38.5674 13.3507 38.5988 13.3967 38.625V39.2191C12.2866 39.7325 11.0645 39.9997 9.82562 40V40ZM15.1821 39.7167V39.536L15.2446 39.5652C18.0112 40.8298 21.0314 41.5378 24.1097 41.6435V46.7942L15.1821 48.1828V39.7167ZM34.8227 48.1828L25.8952 46.7942V41.6435C28.9738 41.5378 31.9942 40.8295 34.7608 39.5646C34.7808 39.5557 34.8018 39.5459 34.8227 39.5362V48.1828ZM40.1792 40C38.9403 39.9996 37.7183 39.7322 36.6082 39.2187V38.625C36.6521 38.6 36.6922 38.5702 36.736 38.5448C37.2254 38.2622 37.702 37.9632 38.1659 37.648C38.2284 37.6054 38.2885 37.5607 38.3503 37.5174C38.8313 37.1812 39.3007 36.8315 39.7499 36.461L39.7574 36.4546C40.2085 36.0821 40.6393 35.6897 41.0563 35.2852C41.1033 35.2396 41.1519 35.1956 41.1986 35.1496C41.5941 34.7589 41.9705 34.3527 42.3324 33.9354C42.3913 33.8675 42.4501 33.8 42.5081 33.7314C42.8614 33.3136 43.1974 32.8842 43.5161 32.443C43.5637 32.3769 43.6094 32.3097 43.6563 32.243C43.9784 31.7847 44.285 31.318 44.5678 30.8373C44.5869 30.805 44.604 30.7717 44.6229 30.7392C44.9074 30.2496 45.1708 29.7496 45.4133 29.2392C45.4266 29.2111 45.4414 29.1838 45.4546 29.1558C45.6912 28.6507 45.9016 28.1347 46.0942 27.6122C46.1105 27.5678 46.1325 27.5257 46.1484 27.4812C47.1883 28.5584 47.8713 29.894 48.1147 31.3261C48.3581 32.7582 48.1514 34.2255 47.5197 35.5503C46.8881 36.875 45.8585 38.0004 44.5557 38.7902C43.2528 39.5799 41.7327 40.0002 40.1792 40Z" fill="#222222"/>
</svg>
