<svg width="50" height="50" viewBox="0 0 50 50" fill="none" xmlns="http://www.w3.org/2000/svg">
<g clip-path="url(#clip0_378_198)">
<path d="M33.8342 0H33.7153C31.9671 0 30.5447 1.42235 30.5447 3.17055V33.1479C30.5447 35.0617 29.8517 36.9682 28.5935 38.5163C27.5753 39.7693 27.0146 41.3499 27.0146 42.9672C27.0146 46.8609 30.1822 50.0286 34.076 50.0286H35.0942L32.5284 44.781L33.0581 43.0369H35.5568L37.7121 48.0658L38.364 47.5456C38.4561 47.4722 39.2799 46.7801 39.8896 45.0952C39.919 45.0142 39.947 44.9329 39.9739 44.8512C40.8571 42.1589 40.2538 39.0968 38.3992 36.8599C37.7841 36.1179 37.3585 35.2465 37.1681 34.3396C37.0598 33.823 37.0047 33.2932 37.0047 32.7653V3.17055C37.0048 1.42235 35.5825 0 33.8342 0ZM31.8159 9.76536H33.1715V29.9971H34.4427V9.76536H35.7336V32.7653C35.7336 33.1222 35.7579 33.4796 35.8006 33.8346H31.7883C31.8052 33.6063 31.816 33.3772 31.816 33.148V9.76536H31.8159ZM35.7336 8.49417H31.816V8.02638H35.7336V8.49417ZM33.7153 1.27119H33.8342C34.8816 1.27119 35.7336 2.1232 35.7336 3.17055V6.75509H31.816V3.17055C31.8159 2.1232 32.6679 1.27119 33.7153 1.27119ZM37.4207 37.6711C38.9989 39.5747 39.5145 42.174 38.7661 44.4547C38.7434 44.524 38.7196 44.5932 38.6945 44.6624C38.5159 45.1558 38.3175 45.5413 38.1376 45.8316L36.3952 41.7656H32.1156L31.167 44.8901L33.0097 48.6588C30.3245 48.1569 28.2859 45.7956 28.2859 42.9671C28.2859 41.6408 28.7455 40.345 29.5801 39.318C30.5921 38.0731 31.2833 36.6224 31.6065 35.1057H36.0517C36.3214 36.0301 36.7885 36.9087 37.4207 37.6711Z" fill="black"/>
<path d="M33.807 4.8628C34.7368 4.8628 35.4933 4.10634 35.4933 3.17657C35.4933 2.2467 34.7368 1.49023 33.807 1.49023C32.8772 1.49023 32.1206 2.2467 32.1206 3.17657C32.1206 4.10634 32.8772 4.8628 33.807 4.8628ZM33.807 2.76142C34.0359 2.76142 34.2221 2.94754 34.2221 3.17657C34.2221 3.40549 34.0359 3.59161 33.807 3.59161C33.578 3.59161 33.3918 3.40538 33.3918 3.17657C33.3918 2.94754 33.578 2.76142 33.807 2.76142Z" fill="#F4A900"/>
<path d="M34.4426 31.2676H33.1714V33.3409H34.4426V31.2676Z" fill="#F4A900"/>
<path d="M17.9183 45.166C16.9884 45.166 16.2319 45.9225 16.2319 46.8524C16.2319 47.7822 16.9884 48.5387 17.9183 48.5387C18.8481 48.5387 19.6046 47.7822 19.6046 46.8524C19.6046 45.9225 18.8481 45.166 17.9183 45.166ZM17.9183 47.2674C17.6893 47.2674 17.5031 47.0812 17.5031 46.8522C17.5031 46.6233 17.6893 46.4371 17.9183 46.4371C18.1472 46.4371 18.3334 46.6233 18.3334 46.8522C18.3334 47.0812 18.1473 47.2674 17.9183 47.2674Z" fill="#F4A900"/>
<path d="M23.6405 10.7487C24.3196 9.64142 24.6785 8.36642 24.6785 7.06144C24.6785 3.16769 21.5108 0 17.6171 0H16.5988L19.1645 5.24756L18.635 6.99163H16.1361L13.9808 1.96282L13.3288 2.48316C13.238 2.55561 11.1966 4.24407 11.1601 8.92691H9.53369V11.9041L10.0974 12.2289C10.5547 12.4907 10.9893 12.7918 11.3905 13.1251C11.4874 13.2052 11.5836 13.2882 11.6759 13.3712C13.5904 15.0981 14.6884 17.5673 14.6884 20.1456V46.8578C14.6884 48.6061 16.1108 50.0286 17.8591 50.0286H17.9775C19.726 50.0286 21.1483 48.6061 21.1483 46.8578V21.1539V19.6923C21.1484 16.4994 22.0101 13.4068 23.6405 10.7487ZM13.557 4.20064L14.9436 7.43612L13.1045 8.92691H12.4305C12.4516 6.47479 13.0732 4.98803 13.557 4.20064ZM12.5266 12.4266C12.4207 12.3314 12.311 12.2368 12.2019 12.1465C11.7674 11.7855 11.2975 11.4569 10.805 11.1696V10.1981H13.5548L15.9424 8.26282H19.5775L20.5262 5.13835L18.6835 1.3696C21.3685 1.8715 23.4073 4.23284 23.4073 7.06144C23.4073 8.13178 23.1132 9.17691 22.5568 10.0841C20.8038 12.9422 19.8772 16.2646 19.8771 19.6922V21.154V40.2633H18.5538V20.0315H17.2826V40.2633H15.9595V20.1457C15.9596 17.208 14.7086 14.3948 12.5266 12.4266ZM15.9596 41.5345H19.8772V42.0022H15.9596V41.5345ZM17.9777 48.7574H17.8592C16.8118 48.7574 15.9596 47.9052 15.9596 46.8578V43.2734H19.8772V46.8578C19.8772 47.9052 19.025 48.7574 17.9777 48.7574Z" fill="black"/>
<path d="M19.8639 9.66797H14.7056V13.3436H19.8639V9.66797ZM15.9768 10.9392H16.6492V12.0724H15.9768V10.9392ZM18.5927 12.0724H17.9204V10.9392H18.5927V12.0724Z" fill="#F4A900"/>
<path d="M18.5539 16.6875H17.2827V18.7609H18.5539V16.6875Z" fill="#F4A900"/>
</g>
<defs>
<clipPath id="clip0_378_198">
<rect width="50" height="50" fill="white"/>
</clipPath>
</defs>
</svg>
