<svg width="50" height="50" viewBox="0 0 50 50" fill="none" xmlns="http://www.w3.org/2000/svg">
<g clip-path="url(#clip0_377_190)">
<path d="M38.2814 31.6338C37.9032 31.2765 37.4194 31.0514 36.9024 30.9922C36.3855 30.933 35.8633 31.043 35.4142 31.3057L34.633 28.1338V28.0635V28.001C34.5947 27.9168 34.5418 27.8401 34.4767 27.7744L33.3751 26.6729C33.1574 26.4544 32.8987 26.281 32.6138 26.1627C32.3289 26.0444 32.0235 25.9835 31.715 25.9835C31.4065 25.9835 31.1011 26.0444 30.8162 26.1627C30.5313 26.281 30.2726 26.4544 30.0548 26.6729L29.5001 26.1104L39.8439 15.665C39.9348 15.575 40.0465 15.5086 40.1691 15.4719C40.2917 15.4351 40.4215 15.429 40.547 15.4541C41.7375 15.7105 42.9717 15.6811 44.1486 15.3682C45.4833 15.0084 46.7002 14.3045 47.6777 13.327C48.6552 12.3495 49.3591 11.1326 49.7189 9.79786C49.9673 8.86896 50.0388 7.90164 49.9298 6.9463C49.8965 6.65241 49.7804 6.37403 49.5951 6.1435C49.4098 5.91297 49.1629 5.73977 48.883 5.64404C48.6032 5.5483 48.3019 5.53396 48.0143 5.60268C47.7266 5.6714 47.4643 5.82035 47.258 6.03224L45.0861 8.25099C45.0135 8.32421 44.927 8.38233 44.8318 8.42199C44.7366 8.46166 44.6345 8.48208 44.5314 8.48208C44.4283 8.48208 44.3261 8.46166 44.2309 8.42199C44.1357 8.38233 44.0493 8.32421 43.9767 8.25099L41.7892 6.04005C41.7149 5.9652 41.6565 5.87608 41.6176 5.77807C41.5786 5.68005 41.56 5.57517 41.5626 5.46974C41.562 5.36506 41.5825 5.26132 41.6227 5.16469C41.663 5.06806 41.7223 4.98051 41.797 4.90724L43.9767 2.68849C44.185 2.47985 44.33 2.21655 44.3949 1.929C44.4599 1.64146 44.4422 1.3414 44.3439 1.06349C44.2444 0.791304 44.0711 0.55217 43.8434 0.372813C43.6158 0.193457 43.3427 0.0809471 43.0548 0.0478602C41.1898 -0.159497 39.3125 0.311361 37.766 1.37434C36.2196 2.43732 35.1075 4.02139 34.633 5.83692C34.3198 7.01109 34.2903 8.24288 34.547 9.43067C34.5813 9.5565 34.5835 9.68891 34.5535 9.81581C34.5235 9.94272 34.4622 10.0601 34.3751 10.1572L23.8986 20.5791L11.1173 7.81349L10.7111 5.75099C10.6214 5.29533 10.3985 4.87658 10.0705 4.54786L5.98452 0.461923C5.8394 0.316647 5.66708 0.201399 5.47739 0.122767C5.28771 0.0441352 5.08439 0.00366232 4.87905 0.00366232C4.67371 0.00366232 4.47039 0.0441352 4.2807 0.122767C4.09102 0.201399 3.91869 0.316647 3.77358 0.461923L0.46108 3.77442C0.315804 3.91954 0.200556 4.09186 0.121924 4.28155C0.0432926 4.47123 0.00281967 4.67455 0.00281967 4.87989C0.00281967 5.08523 0.0432926 5.28855 0.121924 5.47824C0.200556 5.66792 0.315804 5.84025 0.46108 5.98536L4.53921 10.0713C4.86792 10.3993 5.28668 10.6223 5.74233 10.7119L7.80483 11.1182L20.5783 23.8994L10.1564 34.376C10.0654 34.4661 9.95375 34.5324 9.83115 34.5692C9.70854 34.606 9.57878 34.6121 9.45327 34.5869C8.26283 34.3305 7.02856 34.3599 5.8517 34.6729C4.51731 35.0257 3.29867 35.7221 2.31722 36.6925C1.33577 37.663 0.625762 38.8738 0.257955 40.2041C0.00956632 41.133 -0.0619887 42.1003 0.0470176 43.0557C0.0820711 43.3463 0.198062 43.6212 0.381772 43.8491C0.565482 44.0771 0.809522 44.2488 1.08608 44.3447C1.36577 44.4437 1.66785 44.461 1.95699 44.3946C2.24614 44.3282 2.51041 44.1808 2.71889 43.9697L4.89077 41.751C4.9634 41.6778 5.0498 41.6196 5.145 41.58C5.24021 41.5403 5.34232 41.5199 5.44545 41.5199C5.54859 41.5199 5.6507 41.5403 5.74591 41.58C5.84111 41.6196 5.92752 41.6778 6.00014 41.751L8.21108 43.9619C8.35541 44.1074 8.43678 44.3038 8.43764 44.5088C8.43825 44.6135 8.41782 44.7172 8.37756 44.8138C8.3373 44.9105 8.27803 44.998 8.20327 45.0713L6.02358 47.29C5.81386 47.4972 5.66703 47.7595 5.60006 48.0466C5.53309 48.3338 5.54871 48.6339 5.64512 48.9125C5.74153 49.1911 5.91479 49.4368 6.14488 49.6211C6.37498 49.8054 6.65253 49.9209 6.94546 49.9541C7.23347 49.9853 7.52295 50.0009 7.81264 50.001C9.53987 50.0002 11.2181 49.427 12.585 48.3711C13.9519 47.3152 14.9303 45.8361 15.3673 44.165C15.6805 42.9909 15.7099 41.7591 15.4533 40.5713C15.419 40.4455 15.4168 40.3131 15.4468 40.1862C15.4768 40.0592 15.5381 39.9419 15.6251 39.8447L26.1017 29.4229L26.6642 29.9775C26.4457 30.1953 26.2723 30.454 26.154 30.7389C26.0357 31.0238 25.9749 31.3292 25.9749 31.6377C25.9749 31.9462 26.0357 32.2516 26.154 32.5365C26.2723 32.8214 26.4457 33.0801 26.6642 33.2979L27.7658 34.376C27.8314 34.4411 27.9082 34.494 27.9923 34.5322H28.0548H28.1251L31.2892 35.3135C30.992 35.771 30.8638 36.3178 30.9265 36.8598C30.9893 37.4017 31.2391 37.9047 31.633 38.2822L42.6876 49.3135C43.1271 49.7524 43.7228 49.9989 44.3439 49.9989C44.965 49.9989 45.5607 49.7524 46.0001 49.3135L49.3126 46.001C49.7515 45.5615 49.9981 44.9658 49.9981 44.3447C49.9981 43.7236 49.7515 43.1279 49.3126 42.6885L38.2814 31.6338ZM35.4455 11.2354C35.7194 10.9601 35.9206 10.6211 36.031 10.2488C36.1415 9.87654 36.1577 9.48265 36.0783 9.10255C35.8762 8.16018 35.8976 7.18359 36.1408 6.25099C36.4266 5.17542 36.9921 4.19468 37.7797 3.40842C38.5674 2.62217 39.5491 2.05841 40.6251 1.77442C41.3651 1.57284 42.1373 1.51711 42.8986 1.61036L40.6876 3.82911C40.4691 4.04685 40.2958 4.30559 40.1775 4.59047C40.0592 4.87536 39.9983 5.1808 39.9983 5.48927C39.9983 5.79774 40.0592 6.10317 40.1775 6.38806C40.2958 6.67295 40.4691 6.93168 40.6876 7.14942L42.8986 9.37599C43.1163 9.59449 43.3751 9.76785 43.6599 9.88615C43.9448 10.0044 44.2503 10.0653 44.5587 10.0653C44.8672 10.0653 45.1726 10.0044 45.4575 9.88615C45.7424 9.76785 46.0011 9.59449 46.2189 9.37599L48.4376 7.11817C48.5087 7.87735 48.4371 8.6431 48.2267 9.37599C47.9392 10.4431 47.3766 11.4161 46.5951 12.1975C45.8137 12.979 44.8407 13.5416 43.7736 13.8291C42.8341 14.0799 41.8481 14.1013 40.8986 13.8916C40.5173 13.8108 40.1219 13.8263 39.7481 13.9368C39.3743 14.0473 39.034 14.2493 38.758 14.5244L28.3126 25.001L25.0001 21.6885L35.4455 11.2354ZM14.5548 38.7666C14.2809 39.0419 14.0797 39.3809 13.9692 39.7532C13.8588 40.1254 13.8426 40.5193 13.922 40.8994C14.1241 41.8418 14.1027 42.8184 13.8595 43.751C13.5728 44.8185 13.0104 45.7918 12.2288 46.5734C11.4472 47.355 10.4739 47.9173 9.40639 48.2041C8.66639 48.4057 7.89424 48.4614 7.13296 48.3682L9.31264 46.1416C9.75155 45.7022 9.99808 45.1065 9.99808 44.4854C9.99808 43.8643 9.75155 43.2686 9.31264 42.8291L7.10171 40.626C6.88396 40.4075 6.62523 40.2341 6.34034 40.1158C6.05546 39.9975 5.75002 39.9366 5.44155 39.9366C5.13308 39.9366 4.82764 39.9975 4.54276 40.1158C4.25787 40.2341 3.99914 40.4075 3.78139 40.626L1.60171 42.876C1.51897 42.1218 1.57725 41.3588 1.77358 40.626C2.0583 39.5503 2.6223 38.569 3.40845 37.7814C4.19459 36.9939 5.17494 36.4282 6.25014 36.1416C7.19019 35.8947 8.17526 35.8733 9.12514 36.0791C9.50643 36.1599 9.90186 36.1444 10.2756 36.0339C10.6494 35.9234 10.9897 35.7215 11.2658 35.4463L21.6876 25.001L25.0001 28.3135L14.5548 38.7666ZM31.633 27.54C31.7358 27.5395 31.8377 27.5592 31.9329 27.598C32.0281 27.6369 32.1146 27.6942 32.1876 27.7666L32.7423 28.3213L28.3205 32.7432L27.7658 32.1885C27.6203 32.0421 27.5386 31.8441 27.5386 31.6377C27.5386 31.4313 27.6203 31.2333 27.7658 31.0869L31.0861 27.7666C31.2316 27.6223 31.428 27.5409 31.633 27.54ZM4.87514 1.56349L6.25014 2.9463L2.94546 6.25099L1.56264 4.87599L4.87514 1.56349ZM5.65639 8.96192L3.49233 6.81349L6.81264 3.49317L8.96108 5.64942C9.07187 5.75762 9.14801 5.8963 9.17983 6.04786L9.55483 7.93848L7.93764 9.55567L6.04702 9.18067C5.89546 9.14886 5.75678 9.07272 5.64858 8.96192H5.65639ZM9.30483 10.3994L10.4064 9.29786L28.9064 27.7666L27.7658 28.9072L9.30483 10.3994ZM33.4298 29.8525L34.0939 32.501L32.5314 34.0635L29.883 33.3994L33.4298 29.8525ZM48.2111 44.8916L44.8908 48.2119C44.7444 48.3574 44.5464 48.4391 44.34 48.4391C44.1336 48.4391 43.9356 48.3574 43.7892 48.2119L32.7423 37.1572C32.598 37.0117 32.5166 36.8153 32.5158 36.6104C32.5152 36.5075 32.5349 36.4056 32.5738 36.3104C32.6126 36.2152 32.6699 36.1287 32.7423 36.0557L36.0548 32.7432C36.1278 32.6708 36.2144 32.6135 36.3096 32.5746C36.4048 32.5357 36.5067 32.516 36.6095 32.5166C36.8145 32.5175 37.0109 32.5988 37.1564 32.7432L48.2111 43.79C48.2835 43.863 48.3408 43.9496 48.3797 44.0448C48.4185 44.14 48.4382 44.2419 48.4376 44.3447C48.4368 44.5497 48.3554 44.7461 48.2111 44.8916Z" fill="#222222"/>
<path d="M34.6717 36.3285C34.5987 36.2569 34.5005 36.2168 34.3983 36.2168C34.296 36.2168 34.1978 36.2569 34.1248 36.3285C34.0882 36.3648 34.0591 36.408 34.0393 36.4556C34.0195 36.5032 34.0093 36.5542 34.0093 36.6058C34.0093 36.6574 34.0195 36.7084 34.0393 36.756C34.0591 36.8036 34.0882 36.8468 34.1248 36.8831L44.0623 46.8285C44.1368 46.9032 44.238 46.9454 44.3436 46.9456C44.3947 46.9453 44.4452 46.9348 44.4921 46.9147C44.5391 46.8946 44.5816 46.8653 44.617 46.8285C44.6536 46.7921 44.6827 46.7489 44.7025 46.7013C44.7223 46.6537 44.7326 46.6027 44.7326 46.5511C44.7326 46.4995 44.7223 46.4485 44.7025 46.4009C44.6827 46.3533 44.6536 46.3101 44.617 46.2738L34.6717 36.3285Z" fill="#F4A900"/>
<path d="M35.7814 35.2262C35.7078 35.1527 35.6081 35.1113 35.504 35.1113C35.4 35.1113 35.3003 35.1527 35.2267 35.2262C35.1531 35.2998 35.1118 35.3995 35.1118 35.5036C35.1118 35.6076 35.1531 35.7073 35.2267 35.7809L45.172 45.7184C45.2075 45.7552 45.2499 45.7845 45.2969 45.8046C45.3438 45.8248 45.3944 45.8353 45.4454 45.8356C45.4967 45.8362 45.5475 45.8261 45.5946 45.8059C45.6417 45.7857 45.684 45.7559 45.7189 45.7184C45.7563 45.6833 45.786 45.641 45.8064 45.5939C45.8268 45.5469 45.8373 45.4962 45.8373 45.445C45.8373 45.3937 45.8268 45.343 45.8064 45.296C45.786 45.2489 45.7563 45.2066 45.7189 45.1715L35.7814 35.2262Z" fill="#F4A900"/>
<path d="M36.8827 34.1253C36.8463 34.0887 36.8031 34.0596 36.7555 34.0398C36.7079 34.02 36.6569 34.0098 36.6053 34.0098C36.5537 34.0098 36.5027 34.02 36.4551 34.0398C36.4075 34.0596 36.3643 34.0887 36.328 34.1253C36.2564 34.1983 36.2163 34.2965 36.2163 34.3987C36.2163 34.501 36.2564 34.5992 36.328 34.6722L46.2733 44.6175C46.3478 44.6923 46.449 44.7344 46.5545 44.7347C46.6576 44.7332 46.7558 44.6911 46.828 44.6175C46.9 44.5432 46.9403 44.4437 46.9403 44.3402C46.9403 44.2366 46.9 44.1371 46.828 44.0628L36.8827 34.1253Z" fill="#F4A900"/>
</g>
<defs>
<clipPath id="clip0_377_190">
<rect width="50" height="50" fill="white"/>
</clipPath>
</defs>
</svg>
